<svg preserveAspectRatio="xMidYMid meet" id="comp-ke9t33z6svgcontent" data-bbox="114.941 98.359 2176.319 647.657" xmlns="http://www.w3.org/2000/svg" viewBox="0 0 2375 875" fill-rule="evenodd" clip-rule="evenodd" stroke-miterlimit="2" data-type="ugc" role="img" aria-labelledby="comp-ke9t33z6-svgtitle"><title id="comp-ke9t33z6-svgtitle"></title>
    <g>
        <path d="M448.918 151.637l-29.645 101.922c1.856.312 3.707.464 5.559.464 8.184 0 17.68-3.8 28.492-11.402 13.59-9.461 24.129-19.582 31.621-30.363 7.489-10.781 11.235-21.293 11.235-31.528 0-21.25-11.176-31.878-33.524-31.878-6.211 0-10.789.929-13.738 2.785zm-34.797 119.625a132.025 132.025 0 0 0-1.875 6.75 228.86 228.86 0 0 1-1.867 6.972c-7.336 24.653-14.067 44.657-20.191 60.016-6.129 15.355-12.606 28.387-19.43 39.09-3.879 6.515-9.465 13.418-16.754 20.707 18.766 5.742 32.148 9.465 40.137 11.168 7.988 1.711 15.941 2.562 23.851 2.562 9.153 0 17.258-1.359 24.317-4.074 7.058-2.711 13.687-7.098 19.894-13.144 9.156-8.997 16.602-19.7 22.34-32.11 5.738-12.41 8.609-24.433 8.609-36.066 0-12.719-4.418-23.5-13.246-32.34-4.344-4.344-9.183-7.68-14.527-10.008-5.348-2.328-12.75-4.265-22.199-5.816-8.68-1.703-14.723-3.332-18.133-4.879-3.41-1.547-7.051-4.492-10.926-8.828zm-101.527 30.461l27.226-83.766a333.266 333.266 0 0 1 19.078-43.977c-.777.157-2.558 1.012-5.351 2.559-10.703 4.348-18.305 6.516-22.801 6.516-6.363 0-9.543-2.403-9.543-7.211 0-5.121 2.481-12.485 7.445-22.106 4.965-9.617 9.926-16.828 14.895-21.636 11.32-10.391 28.578-18.618 51.769-24.668 23.188-6.047 49.133-9.075 77.833-9.075 17.367 0 33.074 1.477 47.117 4.422 14.035 2.949 26.015 7.332 35.945 13.149 9.926 5.816 17.488 12.836 22.688 21.054 5.195 8.227 7.793 17.375 7.793 27.457 0 14.118-2.946 26.684-8.84 37.696-5.899 11.015-15.203 21.328-27.922 30.945-14.117 10.551-27.457 17.531-40.02 20.941-1.394.465-3.804.93-7.215 1.395v1.164c54.45 6.98 81.672 29.473 81.672 67.477 0 7.601-1.281 15.511-3.84 23.734-2.558 8.223-6.281 16.285-11.168 24.195-4.886 7.914-10.742 15.125-17.566 21.641-14.738 14.426-32.227 27.84-52.469 40.254-20.246 12.406-40.601 22.414-61.078 30.015-20.476 7.598-38.008 11.399-52.586 11.399-12.254 0-24.008-1.395-35.25-4.188-11.25-2.789-20.207-6.476-26.875-11.05-6.672-4.579-10.004-9.504-10.004-14.774 0-4.812 1.356-9.308 4.071-13.496 2.711-4.187 7.714-9.387 15.007-15.59l-.929-.933c-4.188 1.554-8.301 2.328-12.332 2.328-8.535 0-15.438-2.477-20.711-7.446-5.274-4.96-7.91-11.71-7.91-20.242 0-4.808 2.172-16.015 6.515-33.621 4.34-17.605 9.461-35.793 15.356-54.562z" fill="#ffffff"></path>
        <path d="M778.65 298.465l-4.42 1.394c-11.17 3.106-19.24 4.653-24.2 4.653-6.05 0-9.08-1.547-9.08-4.653 0-1.082 1.24-3.957 3.73-8.609 8.68-13.184 13.03-25.594 13.03-37.227 0-6.668-1.17-12.757-3.49-18.265-2.33-5.504-4.89-8.262-7.68-8.262-2.48 0-6.28 2.641-11.4 7.914-14.43 15.668-25.87 31.723-34.32 48.164-8.46 16.442-12.68 31.102-12.68 43.973 0 8.535 1.74 15.59 5.23 21.176 3.49 5.582 7.87 8.375 13.15 8.375 4.5 0 12.91-4.805 25.24-14.426 12.34-9.613 26.18-22.336 41.54-38.16l6.28-5.117-.93-.93zm-13.96 53.281v.93l-.93-.93c-14.43 16.91-27.65 30.754-39.67 41.535-12.03 10.781-23.12 18.887-33.28 24.313-10.16 5.429-19.5 8.144-28.04 8.144-17.37 0-31.72-5.816-43.04-17.449-11.324-11.637-16.988-26.371-16.988-44.211 0-11.012 2.793-24.043 8.379-39.09 5.579-15.043 13.259-29.781 23.039-44.207 16.28-23.578 36.76-43.59 61.42-60.031 25.44-16.906 49.95-25.363 73.53-25.363 19.85 0 36.18 4.074 48.98 12.218 12.79 8.141 19.19 18.418 19.19 30.829 0 9.152-3.18 18.847-9.54 29.086 8.38 0 13.65.89 15.83 2.675 2.16 1.785 3.25 5.934 3.25 12.446 0-.618-.39 2.558-1.16 9.543-.93 15.355-1.4 29.703-1.4 43.043 0 6.98.08 12.253.24 15.82.15 3.574.46 7.68.93 12.332.46 4.656.93 8.379 1.39 11.172 1.24 7.293 3.26 14.504 6.05 21.637-9.3 9.156-18.23 15.863-26.76 20.128-8.53 4.262-17.22 6.399-26.05 6.399-23.9 0-35.84-20.012-35.84-60.031 0-4.653.16-8.297.47-10.938z" fill="#ffffff"></path>
        <path d="M1035.29 306.141v.933l-.93-.933c-.93.316-2.17.468-3.72.468-2.95.313-6.68.465-11.17.465-7.91 0-11.87-1.472-11.87-4.422 0-1.55 1.01-3.41 3.03-5.586 5.89-6.664 10.97-15.433 15.24-26.289 4.26-10.859 6.63-20.711 7.09-29.55 0-2.172.16-4.11.47-5.817.15-.621.27-1.164.35-1.629.08-.469.11-.851.11-1.164 0-2.172-1.47-3.258-4.42-3.258-6.04 0-15.35 6.516-27.91 19.543-7.92 8.379-15.37 18.309-22.35 29.786-6.98 11.48-12.4 22.957-16.28 34.433-3.88 11.484-5.82 21.797-5.82 30.945 0 9 2.25 13.496 6.75 13.496 4.34 0 15.28-7.289 32.81-21.871 7.91-6.824 20.78-16.671 38.62-29.55zm-11.86 49.562l-6.29 4.652c-.46.465-1.2 1.086-2.21 1.864-1.01.777-2.29 1.785-3.84 3.023-26.84 20.942-47.89 35.68-63.17 44.207-15.28 8.535-28.58 12.801-39.9 12.801-12.57 0-22.69-4.574-30.37-13.73-7.68-9.149-11.52-21.407-11.52-36.762 0-19.082 5.39-38.817 16.18-59.219 10.78-20.394 25.01-39.125 42.69-56.191 17.69-17.059 37.07-30.75 58.17-41.067 21.1-10.312 41.49-15.472 61.2-15.472 19.38 0 34.16 3.336 44.32 10.003 10.16 6.672 15.24 16.676 15.24 30.016 0 11.168-4.42 24.977-13.26 41.418 6.36.465 11.01 2.442 13.96 5.934 2.94 3.488 4.42 8.957 4.42 16.402 0 12.098-2.48 28.969-7.44 50.609-4.97 21.637-11.02 41.61-18.16 59.914-8.68 23.11-21.09 43.196-37.22 60.262-12.26 12.875-27.46 23.926-45.61 33.156-18.15 9.227-33.74 13.844-46.76 13.844-10.86 0-20.56-4.344-29.09-13.027-8.53-8.692-12.8-18.461-12.8-29.32 0-7.293 1.86-14.852 5.59-22.684 3.72-7.836 8.53-14.543 14.42-20.129 12.1-12.254 29.86-23.883 53.29-34.898 4.34-2.172 7.67-3.258 10-3.258.93 0 1.78.387 2.56 1.164.78.777 1.16 1.629 1.16 2.558 0 1.086-.93 3.18-2.79 6.282-4.65 7.91-8.76 18.031-12.33 30.363-3.57 12.332-5.35 22.996-5.35 31.996 0 10.547 1.63 15.82 4.88 15.82 1.71 0 3.84-1.902 6.41-5.699 2.55-3.805 4.84-8.109 6.86-12.914 13.19-33.508 21.62-64.531 25.31-93.082.48-4.184.96-10.465 1.45-18.836z" fill="#ffffff"></path>
        <path d="M1463.42 347.094c7.13-4.809 12.56-9.617 16.28-14.426 8.23-10.082 14.58-21.641 19.09-34.668 3.56-8.531 6.35-18.07 8.37-28.621 2.02-10.547 3.02-20.395 3.02-29.551 0-8.527-1.78-12.797-5.34-12.797-4.97 0-12.57 10.938-22.81 32.809-6.05 13.187-10.97 26.332-14.78 39.437-3.8 13.11-5.69 24.395-5.69 33.856 0 3.258.61 7.91 1.86 13.961zm.46 7.445c1.71 9.309 7.76 13.961 18.15 13.961 11.63 0 26.76-6.824 45.37-20.477 10.86-7.91 18.15-11.867 21.87-11.867 4.66 0 9 1.246 13.04 3.723 4.03 2.484 6.05 5.043 6.05 7.68 0 2.793-2.25 6.437-6.75 10.937-8.23 8.223-17.69 16.25-28.39 24.082-10.7 7.832-21.02 14.348-30.95 19.543-9.93 5.199-19.85 9.309-29.78 12.332-9.93 3.024-18.77 4.539-26.52 4.539-19.4 0-34.9-5.547-46.54-16.637-11.63-11.089-17.45-25.863-17.45-44.328 0-14.113 3.06-30.05 9.19-47.812 6.13-17.762 14.39-34.399 24.78-49.91 12.25-18.149 27.3-33.274 45.14-45.371 22.03-14.579 43.12-21.872 63.29-21.872 14.58 0 26.02 4.618 34.32 13.844 8.3 9.231 12.45 21.91 12.45 38.043 0 12.563-3.3 25.672-9.89 39.321-6.6 13.652-16.33 26.757-29.2 39.324-10.56 10.551-20.91 18.769-31.06 24.664-10.17 5.894-19.05 8.84-26.65 8.84-3.41 0-6.9-.848-10.47-2.559z" fill="#ffffff"></path>
        <path d="M1630.71 194.457l.93-2.793c10.25-28.852 19.11-49.172 26.56-60.961 3.57-5.586 8.54-10.547 14.91-14.891 11.96-7.597 23.22-11.402 33.78-11.402 6.21 0 10.95 1.399 14.21 4.195 3.26 2.797 4.89 6.836 4.89 12.114 0 3.574-2.34 10.859-7.02 21.851-7.97 18.301-13.9 35.438-17.8 51.41 2.64.313 5.21.778 7.69 1.395 9.32 1.398 15.45 2.992 18.41 4.777 2.95 1.782 4.43 5 4.43 9.657 0 8.222-2.1 15.828-6.29 22.808-4.18 6.985-9.68 12.106-16.5 15.363-5.12 2.329-13.41 3.879-24.88 4.653-2 6.055-4.22 14.359-6.67 24.91-1.38 9.316-2.92 22.195-4.61 38.645-.93 6.046-1.39 11.703-1.39 16.976 0 24.488 11.86 36.731 35.6 36.731h2.09c2.79 0 4.19.468 4.19 1.398 0 2.48-2.64 6.672-7.91 12.562-5.28 5.899-11.09 11.094-17.45 15.59-6.83 4.653-14.28 8.379-22.36 11.168-8.08 2.793-15.38 4.192-21.91 4.192-16.32 0-29.56-5.508-39.74-16.524-10.18-11.011-15.27-25.593-15.27-43.742 0-7.754 1.35-17.918 4.07-30.48 2.71-12.567 6.94-29.395 12.68-50.493.93-3.722 1.94-7.636 3.03-11.75 1.08-4.109 1.7-6.55 1.85-7.328-6.2-.152-10.62-1.472-13.26-3.957-2.63-2.476-3.95-6.511-3.95-12.097 0-9.774 3.76-19 11.29-27.688 7.51-8.687 16.32-14.113 26.4-16.289z" fill="#ffffff"></path>
        <path d="M1794.75 194.457l.93-2.793c10.25-28.852 19.1-49.172 26.56-60.961 3.57-5.586 8.54-10.547 14.91-14.891 11.96-7.597 23.21-11.402 33.78-11.402 6.21 0 10.95 1.399 14.2 4.195 3.26 2.797 4.9 6.836 4.9 12.114 0 3.574-2.34 10.859-7.03 21.851-7.96 18.301-13.89 35.438-17.79 51.41 2.64.313 5.2.778 7.69 1.395 9.32 1.398 15.45 2.992 18.4 4.777 2.95 1.782 4.43 5 4.43 9.657 0 8.222-2.09 15.828-6.28 22.808-4.18 6.985-9.68 12.106-16.5 15.363-5.12 2.329-13.42 3.879-24.88 4.653-2 6.055-4.23 14.359-6.68 24.91-1.38 9.316-2.91 22.195-4.6 38.645-.93 6.046-1.4 11.703-1.4 16.976 0 24.488 11.87 36.731 35.61 36.731h2.09c2.79 0 4.19.468 4.19 1.398 0 2.48-2.64 6.672-7.91 12.562a103.755 103.755 0 0 1-17.46 15.59c-6.82 4.653-14.27 8.379-22.35 11.168-8.08 2.793-15.38 4.192-21.91 4.192-16.32 0-29.56-5.508-39.75-16.524-10.17-11.011-15.26-25.593-15.26-43.742 0-7.754 1.35-17.918 4.07-30.48 2.71-12.567 6.94-29.395 12.68-50.493.93-3.722 1.93-7.636 3.02-11.75 1.09-4.109 1.71-6.55 1.86-7.328-6.2-.152-10.62-1.472-13.26-3.957-2.64-2.476-3.96-6.511-3.96-12.097 0-9.774 3.76-19 11.29-27.688 7.52-8.687 16.32-14.113 26.41-16.289z" fill="#ffffff"></path>
        <path d="M1994.85 347.094c7.13-4.809 12.57-9.617 16.29-14.426 8.22-10.082 14.58-21.641 19.08-34.668 3.56-8.531 6.36-18.07 8.37-28.621 2.02-10.547 3.03-20.395 3.03-29.551 0-8.527-1.78-12.797-5.35-12.797-4.97 0-12.57 10.938-22.8 32.809-6.05 13.187-10.98 26.332-14.78 39.437-3.8 13.11-5.7 24.395-5.7 33.856 0 3.258.62 7.91 1.86 13.961zm.47 7.445c1.7 9.309 7.75 13.961 18.15 13.961 11.63 0 26.75-6.824 45.37-20.477 10.86-7.91 18.15-11.867 21.87-11.867 4.65 0 9 1.246 13.03 3.723 4.03 2.484 6.05 5.043 6.05 7.68 0 2.793-2.25 6.437-6.75 10.937-8.22 8.223-17.68 16.25-28.38 24.082-10.71 7.832-21.03 14.348-30.95 19.543-9.93 5.199-19.86 9.309-29.78 12.332-9.93 3.024-18.77 4.539-26.53 4.539-19.39 0-34.9-5.547-46.53-16.637-11.64-11.089-17.46-25.863-17.46-44.328 0-14.113 3.07-30.05 9.2-47.812 6.12-17.762 14.38-34.399 24.78-49.91 12.25-18.149 27.3-33.274 45.14-45.371 22.02-14.579 43.12-21.872 63.29-21.872 14.57 0 26.01 4.618 34.31 13.844 8.3 9.231 12.45 21.91 12.45 38.043 0 12.563-3.3 25.672-9.88 39.321-6.6 13.652-16.33 26.757-29.21 39.324-10.55 10.551-20.9 18.769-31.06 24.664-10.16 5.894-19.04 8.84-26.64 8.84-3.41 0-6.9-.848-10.47-2.559z" fill="#ffffff"></path>
        <path d="M1359.32 362.652c0-4.031-.04-7.328-.11-9.89-.08-2.559-.2-5.387-.35-8.492 0-15.508.93-34.434 2.79-56.774 1.08-11.476 1.63-19.465 1.63-23.965 0-21.558-6.22-32.34-18.64-32.34-6.53 0-14.76 3.454-24.7 10.352 0 0-3.85 2.062-9.44 8.566-15.06 16.629-37.77 55.278-44.62 63.864-24.26 30.398-41.97 25.472-45.64 25.281-3.7-.192-5.52-2.82-5.45-7.883l.09-.137c0-6.058 6.67-23.218 20.01-51.488l2.8-6.742c5.13-10.543 8.87-19.613 11.2-27.211 2.34-7.598 3.55-14.805 3.63-21.625 0-9.91-3.02-17.895-9.07-23.934-6.05-6.043-13.96-9.066-23.73-9.066-7.14 0-13.35 1.164-18.62 3.492-15.04 5.899-27.77 22.184-38.16 48.863-9.46 24.043-16.98 48.434-22.57 73.176-5.58 24.742-8.37 46.418-8.37 65.035 0 11.016 2.52 19.973 7.56 26.871 4.9 6.719 9.51 9.86 17.47 10.024l-.01.023c.2 0 .4-.007.6-.007h.07v-.004c39.66-.309 80.95-12.317 116.24-46.414.6 8.363 2.38 15.648 5.35 21.835 3.72 7.762 9.19 13.614 16.4 17.571 7.21 3.953 15.86 5.933 25.95 5.933 11.01 0 20.71-1.785 29.08-5.351 8.38-3.57 12.56-7.68 12.56-12.332l-1.63-13.266c-.46-5.582-1.24-13.57-2.32-23.965z" fill="#ffffff"></path>
        <path d="M229.043 240.039c2.363 0 4.48.746 6.348 2.242 1.867 1.492 2.8 3.426 2.8 5.789 0 2.118-1.121 5.633-3.359 10.551-2.242 4.918-5.508 11.641-9.805 20.168-4.297 8.531-7.722 15.688-10.269 21.477-2.555 5.789-3.828 10.304-3.828 13.539 0 2.367 1.179 6.601 3.547 12.699a396.077 396.077 0 0 0 7.187 17.367 805.675 805.675 0 0 1 6.07 14.004c1.618 3.863 2.43 6.91 2.43 9.152 0 2.493-.812 4.387-2.43 5.696-1.621 1.308-3.488 1.961-5.601 1.961-5.231 0-11.578-4.602-19.047-13.821-7.473-9.211-14.195-19.355-20.172-30.437-5.973-11.078-8.961-18.117-8.961-21.106 0-2.859 2.238-8.09 6.723-15.683 4.48-7.594 9.988-15.563 16.527-23.907 6.535-8.335 12.789-15.371 18.766-21.101 5.976-5.727 10.332-8.59 13.074-8.59zm-59.012 0c2.364 0 4.418.719 6.16 2.149 1.743 1.433 2.618 3.394 2.618 5.882 0 1.868-1.59 6.227-4.762 13.071a1756.243 1756.243 0 0 1-10.649 22.504c-3.918 8.156-6.785 14.445-8.589 18.863-1.805 4.418-2.707 8.187-2.707 11.297 0 2.867.621 5.976 1.867 9.336 1.246 3.363 3.457 8.718 6.629 16.062 3.175 7.348 5.664 13.258 7.472 17.738 1.801 4.485 2.707 7.844 2.707 10.086 0 5.106-2.554 7.657-7.656 7.657-5.23 0-11.578-4.637-19.047-13.911-7.472-9.273-14.195-19.453-20.172-30.535-5.976-11.078-8.961-18.05-8.961-20.918 0-2.984 2.27-8.242 6.817-15.777 4.543-7.531 10.082-15.469 16.617-23.813 6.535-8.335 12.793-15.371 18.77-21.101 5.976-5.727 10.269-8.59 12.886-8.59z" fill="#ffffff"></path>
        <path d="M2235.42 374.684c-2.24 0-4.26-.684-6.07-2.055-1.81-1.367-2.71-3.234-2.71-5.602 0-2.363.94-5.507 2.81-9.429 1.86-3.922 5.07-10.301 9.61-19.145 4.55-8.836 8.19-16.461 10.93-22.875 2.73-6.41 4.1-11.172 4.1-14.285 0-2.988-.81-6.629-2.42-10.926-1.62-4.293-4.24-10.457-7.85-18.488-3.61-8.027-6.04-13.691-7.28-16.992-1.25-3.297-1.87-5.696-1.87-7.192 0-2.488.75-4.386 2.24-5.695 1.5-1.305 3.43-1.961 5.79-1.961 4.98 0 11.27 4.641 18.87 13.914 7.59 9.277 14.43 19.578 20.54 30.906 6.1 11.332 9.15 18.301 9.15 20.914 0 4.235-3.92 12.047-11.77 23.438-7.84 11.391-16.24 21.82-25.21 31.281-8.96 9.461-15.25 14.192-18.86 14.192zm-59.01 0c-2.24 0-4.27-.684-6.07-2.055-1.81-1.367-2.71-3.234-2.71-5.602 0-2.363.94-5.507 2.8-9.429 1.87-3.922 5.14-10.426 9.81-19.516 4.67-9.086 8.28-16.715 10.83-22.875 2.55-6.164 3.83-10.801 3.83-13.914 0-2.988-.81-6.629-2.43-10.926-1.62-4.293-3.86-9.644-6.72-16.058-2.87-6.411-5.27-12.075-7.2-16.997-1.92-4.914-2.89-8.121-2.89-9.617 0-5.101 2.68-7.656 8.03-7.656 5.1 0 11.39 4.641 18.86 13.914 7.47 9.277 14.22 19.516 20.27 30.719 6.03 11.203 9.06 18.242 9.06 21.101 0 4.11-3.84 11.797-11.49 23.063-7.66 11.269-16 21.726-25.03 31.375-9.02 9.648-15.34 14.473-18.95 14.473z" fill="#ffffff"></path>
        <path d="M300.688 596.281c0 1.016-.403 2.098-1.215 3.246-.879 1.153-2.098 2.571-3.789 4.196l-62.59 61.031 39.515 70.301c.676 1.285 1.153 2.367 1.422 3.179.27.879.407 1.555.407 2.164 0 .747-.137 1.356-.473 1.895-.34.543-.813.949-1.559 1.285-.742.34-1.758.543-3.113.746-1.418.203-3.109.27-5.207.27-2.168 0-3.926-.067-5.277-.203-1.422-.203-2.504-.407-3.317-.676-.812-.27-1.422-.676-1.828-1.153-.473-.472-.812-1.082-1.148-1.824l-41.274-75.242-14.887 75.375c-.066.609-.339 1.152-.746 1.625-.472.473-1.082.879-1.961 1.152-.878.27-1.96.473-3.246.676-1.285.203-2.91.27-4.804.27-1.961 0-3.52-.067-4.805-.27-1.285-.203-2.234-.406-2.91-.676-.742-.273-1.219-.679-1.422-1.152-.27-.473-.336-1.016-.133-1.625l28.891-144.863c.066-.539.34-1.082.812-1.555.473-.473 1.082-.812 1.961-1.082.879-.269 1.965-.473 3.317-.676 1.285-.203 2.91-.273 4.734-.273 1.828 0 3.453.07 4.738.273 1.285.203 2.235.407 2.977.676.676.27 1.152.609 1.422 1.082.203.473.269 1.016.203 1.555l-13.399 67.121 65.973-66.848a8.484 8.484 0 0 1 2.027-1.828c.746-.473 1.559-.879 2.571-1.148.949-.274 2.097-.477 3.519-.68 1.422-.133 3.047-.203 4.942-.203 1.961 0 3.586.07 4.871.273 1.285.203 2.23.407 2.976.743.676.339 1.149.675 1.422 1.152.27.472.403 1.082.403 1.691zm29.238 144.727c-.067.543-.336 1.015-.742 1.488-.477.473-1.082.879-1.965 1.152-.879.27-1.961.473-3.246.676-1.285.203-2.911.27-4.805.27-1.961 0-3.586-.067-4.805-.27-1.285-.203-2.23-.406-2.906-.676-.746-.273-1.219-.679-1.422-1.152-.273-.473-.34-.945-.137-1.488l28.891-145c.07-.539.406-1.082.883-1.555.473-.473 1.148-.812 2.027-1.082.879-.269 1.961-.473 3.25-.676 1.285-.203 2.84-.273 4.668-.273 1.824 0 3.383.07 4.668.273 1.285.203 2.235.407 2.977.676.746.27 1.218.609 1.488 1.082.203.473.27 1.016.066 1.555l-28.89 145zM502.539 597.16c0 .473 0 1.149-.07 1.961-.067.813-.133 1.691-.336 2.57-.203.95-.406 1.965-.746 2.981-.336 1.082-.676 2.027-1.149 2.773a7.743 7.743 0 0 1-1.691 1.895c-.676.539-1.422.812-2.164.812h-42.426l-26.25 130.719a3.706 3.706 0 0 1-.812 1.625 4.8 4.8 0 0 1-1.895 1.152c-.812.27-1.895.473-3.18.676-1.355.203-2.98.27-4.941.27-1.961 0-3.52-.067-4.734-.27-1.286-.203-2.235-.406-2.911-.676-.746-.273-1.218-.679-1.422-1.152-.269-.473-.339-1.016-.136-1.625l26.117-130.719h-42.219c-1.082 0-1.828-.34-2.164-1.086-.406-.675-.609-1.621-.609-2.906 0-.543.066-1.219.203-2.031.066-.813.269-1.758.473-2.774.203-1.015.406-1.964.742-2.91.273-.879.679-1.757 1.152-2.64.473-.809.945-1.489 1.555-1.961.609-.473 1.285-.742 2.031-.742h104.875c1.016 0 1.758.336 2.164 1.082.34.742.543 1.757.543 2.976zm122.241 11.301c0 1.691-.27 3.719-.81 6.086-.55 2.371-1.22 4.265-2.1 5.683-.88 1.422-1.9 2.098-2.91 2.098-1.08 0-2.37-.742-3.79-2.164-1.49-1.422-3.451-2.91-5.955-4.602-2.504-1.691-5.75-3.246-9.676-4.667-3.926-1.422-8.863-2.165-14.75-2.165-6.496 0-12.449 1.219-17.797 3.653a51.363 51.363 0 0 0-14.476 9.879c-4.332 4.195-8.121 9-11.368 14.414a93.512 93.512 0 0 0-8.121 17.051 109.189 109.189 0 0 0-4.871 17.996c-1.082 6.089-1.625 11.839-1.625 17.32 0 6.16.813 11.707 2.371 16.578 1.555 4.871 3.789 9 6.766 12.313 2.906 3.316 6.562 5.886 10.824 7.578 4.262 1.695 9.133 2.574 14.547 2.574 6.023 0 11.301-.68 15.699-2.098 4.399-1.355 8.117-2.843 11.297-4.535 3.18-1.691 5.82-3.18 7.918-4.531 2.098-1.356 3.789-2.031 5.074-2.031.879 0 1.489.339 1.895.949.34.605.543 1.555.543 2.773 0 .407-.07.946-.137 1.692-.137.742-.269 1.554-.406 2.367-.203.879-.34 1.758-.543 2.773a29.488 29.488 0 0 1-.742 2.91c-.34.879-.676 1.692-1.016 2.438-.336.742-.945 1.555-1.758 2.297-.812.746-2.504 1.894-5.074 3.387-2.641 1.554-5.82 2.976-9.609 4.328-3.789 1.355-8.051 2.504-12.719 3.519-4.668 1.016-9.676 1.488-14.953 1.488-7.918 0-15.09-1.218-21.449-3.585-6.36-2.368-11.774-5.887-16.239-10.489-4.468-4.601-7.918-10.351-10.355-17.254-2.5-6.832-3.719-14.75-3.719-23.679 0-7.375.813-15.024 2.367-22.805 1.555-7.781 3.789-15.426 6.836-22.801a111.62 111.62 0 0 1 11.363-20.906 85.51 85.51 0 0 1 15.903-17.188c6.023-4.937 12.789-8.796 20.297-11.636 7.511-2.844 15.836-4.262 24.832-4.262 5.683 0 10.961.605 15.902 1.895 4.938 1.285 9.133 2.906 12.654 4.871 3.45 1.961 6.02 3.652 7.58 5.207 1.55 1.558 2.3 3.316 2.3 5.281zM744 741.008c-.13.543-.4 1.015-.81 1.488-.47.473-1.08.879-1.89 1.152-.82.27-1.83.473-3.12.676-1.28.203-2.97.27-5 .27-1.83 0-3.38-.067-4.67-.27s-2.23-.406-2.98-.676c-.74-.273-1.21-.679-1.42-1.152-.27-.473-.27-.945 0-1.488l13.27-67.051h-68.69l-13.26 67.051c-.13.543-.4 1.015-.8 1.488-.41.473-1.02.879-1.9 1.152-.88.27-1.96.473-3.25.676-1.29.203-2.91.27-4.8.27-1.97 0-3.59-.067-4.81-.27-1.28-.203-2.23-.406-2.91-.676-.74-.273-1.21-.679-1.42-1.152-.27-.473-.34-.945-.13-1.488l28.89-145c.07-.539.34-1.082.81-1.555.48-.473 1.08-.812 1.96-1.082.88-.269 1.97-.473 3.25-.676 1.29-.203 2.84-.273 4.81-.273 1.82 0 3.44.07 4.73.273 1.28.203 2.23.407 2.98.676.68.27 1.15.609 1.35 1.082.2.473.2 1.016.14 1.555L672.35 656.5h68.54L753 596.008c.07-.539.27-1.082.75-1.555.4-.473 1.01-.812 1.89-1.082.88-.269 1.97-.473 3.25-.676 1.29-.203 2.91-.273 4.94-.273 1.83 0 3.38.07 4.67.273 1.21.203 2.23.407 2.97.676.75.27 1.22.609 1.42 1.082.21.473.21 1.016 0 1.555l-28.89 145zm160.84-144.051c0 .34 0 .945-.06 1.758-.07.879-.14 1.762-.34 2.64-.21.946-.41 1.895-.68 2.911-.27 1.011-.61 1.961-1.08 2.773a7.18 7.18 0 0 1-1.69 1.961c-.68.473-1.42.746-2.24.746h-58.79l-9.61 47.363h50.74c.88 0 1.63.27 2.1.879.47.61.68 1.555.68 2.84 0 .34-.07.949-.14 1.762-.13.879-.27 1.758-.4 2.703-.2 1.016-.41 1.965-.75 2.844-.33.945-.67 1.758-1.08 2.504-.47.742-.95 1.421-1.56 1.894-.6.473-1.35.742-2.16.742h-50.55l-10.96 53.996h60.02c.75 0 1.42.27 1.96.879.48.61.75 1.625.75 2.977 0 .473-.07 1.082-.14 1.961-.07.883-.2 1.762-.4 2.64-.21.946-.41 1.895-.68 2.84-.34 1.016-.68 1.899-1.15 2.707a6.398 6.398 0 0 1-1.63 1.895c-.67.476-1.42.746-2.23.746h-72.46c-.88 0-1.7-.137-2.51-.406-.81-.27-1.49-.746-2.1-1.422-.6-.61-1.01-1.488-1.21-2.57-.2-1.016-.14-2.301.2-3.79l26.93-134.441c.54-3.047 1.76-5.211 3.65-6.43 1.83-1.152 3.66-1.757 5.42-1.757h71.45c1.82 0 2.7 1.285 2.7 3.855zm129.65 138.707c-.2 1.555-.68 2.84-1.35 3.922-.75 1.082-1.56 1.965-2.44 2.641-.88.742-1.82 1.218-2.84 1.554-1.02.34-2.03.473-3.05.473h-7.58c-2.02 0-3.71-.27-5.14-.742-1.42-.473-2.63-1.219-3.65-2.367-1.08-1.083-2.03-2.575-2.84-4.399a65.613 65.613 0 0 1-2.57-6.836l-28.35-80.379c-1.97-5.754-3.86-11.504-5.75-17.254-1.9-5.683-3.73-11.367-5.55-17.121h-.27a878.985 878.985 0 0 1-3.25 18.946c-1.15 6.293-2.37 12.586-3.59 18.878l-17.52 87.891a3.8 3.8 0 0 1-.81 1.625c-.48.473-1.08.879-1.9 1.152-.81.27-1.83.473-3.11.676-1.29.203-2.84.27-4.67.27-1.76 0-3.25-.067-4.46-.27-1.22-.203-2.1-.406-2.71-.676-.61-.273-1.02-.679-1.22-1.152a2.197 2.197 0 0 1-.06-1.625l27.74-139.18c.6-3.043 1.89-5.277 3.85-6.629 1.96-1.285 3.99-1.96 6.02-1.96h9.21c1.82 0 3.51.203 4.94.539 1.41.406 2.57 1.082 3.58 2.097 1.01 1.016 1.9 2.367 2.71 3.926a72.54 72.54 0 0 1 2.5 6.156l28.55 81.465a1304.53 1304.53 0 0 1 5.35 15.156c1.76 5.075 3.45 10.149 5.14 15.223h.27c1.08-6.359 2.3-12.992 3.59-19.824 1.28-6.832 2.5-13.399 3.72-19.758l16.44-81.734c.21-.61.47-1.149.88-1.555.34-.406.95-.746 1.69-1.086.75-.336 1.76-.539 2.98-.742 1.22-.137 2.77-.203 4.6-.203 1.83 0 3.32.066 4.54.203 1.14.203 2.09.406 2.77.742.61.34 1.08.68 1.35 1.086.2.406.27.945.2 1.555l-27.94 139.316zm207.8-7.375c-7.51 5.481-15.63 9.742-24.36 12.922-8.72 3.18-17.86 4.805-27.4 4.805-6.9 0-13.12-.813-18.6-2.438-5.55-1.555-10.22-3.855-14.08-6.902-3.85-3.043-6.76-6.696-8.79-10.961-2.1-4.262-3.12-8.996-3.12-14.207 0-4.805.81-9.61 2.37-14.278 1.56-4.668 4-9.269 7.31-13.668 3.31-4.398 7.65-8.726 12.86-12.921 5.2-4.129 11.56-8.051 18.94-11.774-2.17-3.992-3.92-7.644-5.35-11.027a73.433 73.433 0 0 1-3.18-9.27c-.74-2.777-1.28-5.281-1.62-7.511-.34-2.235-.47-4.129-.47-5.821 0-2.504.34-5.277 1.01-8.254.61-2.91 1.69-5.886 3.18-8.796a37.716 37.716 0 0 1 5.89-8.391c2.37-2.637 5.34-4.938 8.93-7.035 3.58-2.032 7.78-3.653 12.65-4.871 4.81-1.153 10.42-1.762 16.72-1.762 7.3 0 13.39.746 18.33 2.234 4.87 1.555 8.8 3.52 11.84 6.024 2.98 2.504 5.08 5.277 6.36 8.39 1.29 3.11 1.9 6.223 1.9 9.336 0 4.532-.75 8.93-2.3 13.125-1.56 4.196-4.2 8.324-7.99 12.45-3.85 4.128-9 8.39-15.43 12.652-6.42 4.265-14.54 8.73-24.35 13.262a243.93 243.93 0 0 0 7.3 11.367c2.37 3.453 4.74 6.769 7.25 9.949 2.5 3.18 5 6.359 7.64 9.473a470.73 470.73 0 0 0 8.32 9.539c4.27-4.871 7.85-9.946 10.69-15.293 2.85-5.344 4.81-10.082 5.89-14.274 1.08-4.195 1.69-6.972 1.89-8.39.21-1.422.48-2.371.82-2.977.34-.609.95-1.086 1.69-1.422.74-.34 1.76-.609 2.97-.812 1.22-.137 2.78-.203 4.74-.203 3.45 0 5.75.203 7.04.609 1.22.473 1.83 1.148 1.83 2.164 0 1.016-.34 3.18-1.02 6.496-.75 3.317-1.69 6.902-2.91 10.758-1.29 3.855-2.91 7.781-4.94 11.84-2.03 4.129-4.4 8.121-7.1 12.113a91.533 91.533 0 0 1-9.14 11.164c5.01 4.735 9.14 8.188 12.38 10.285 3.19 2.164 6.03 3.246 8.39 3.246 1.63 0 2.71.204 3.25.676.54.477.82 1.285.75 2.438 0 .609-.07 1.422-.21 2.504-.2 1.082-.4 2.23-.74 3.382a85.04 85.04 0 0 1-1.01 3.383c-.41 1.082-.88 1.895-1.43 2.438-.54.539-1.49 1.011-2.77 1.351-1.35.34-2.77.473-4.26.473-1.49 0-3.12-.27-4.94-.879-1.83-.609-3.86-1.625-6.16-3.043-2.3-1.355-4.87-3.184-7.78-5.414-2.91-2.234-6.09-4.941-9.68-8.254zm-37.14-77.746c7.91-3.719 14.28-7.172 19.21-10.352 4.87-3.179 8.66-6.222 11.44-9.132 2.7-2.844 4.53-5.618 5.55-8.254.94-2.641 1.42-5.278 1.42-7.918 0-1.219-.27-2.571-.81-4.129-.55-1.555-1.49-2.977-2.91-4.262-1.42-1.285-3.25-2.367-5.62-3.246s-5.48-1.285-9.34-1.285c-5.34 0-9.67.742-13.12 2.23-3.45 1.559-6.16 3.453-8.19 5.754-2.1 2.301-3.52 4.735-4.4 7.305-.88 2.641-1.29 5.008-1.29 7.172 0 1.488.14 3.113.34 4.804.21 1.692.61 3.657 1.22 5.754a66.898 66.898 0 0 0 2.44 7.036c1.01 2.503 2.37 5.343 4.06 8.523zm-9.47 22.059c-4.54 2.367-8.6 4.871-12.18 7.511-3.59 2.637-6.64 5.481-9 8.457-2.44 3.043-4.27 6.227-5.55 9.61-1.29 3.382-1.97 7.035-1.97 10.89 0 2.575.41 5.078 1.29 7.578.88 2.504 2.37 4.672 4.47 6.633 2.1 1.961 4.8 3.52 8.25 4.668 3.45 1.153 7.72 1.758 12.86 1.758 3.11 0 6.29-.336 9.47-1.012a59.556 59.556 0 0 0 9.47-2.64c3.12-1.149 6.09-2.504 8.87-4.129a70.713 70.713 0 0 0 7.84-5.141c-3.31-3.586-6.36-7.172-9.27-10.621-2.9-3.453-5.75-6.902-8.52-10.488a237.581 237.581 0 0 1-8.05-11.098c-2.64-3.789-5.35-7.781-7.98-11.976zm299.61-50.137c0 4.738-.6 9.203-1.89 13.465a44.285 44.285 0 0 1-5.48 11.707c-2.37 3.586-5.28 6.695-8.59 9.402-3.39 2.773-7.24 5.008-11.51 6.836 3.25.609 6.3 1.691 9.14 3.316 2.84 1.692 5.27 3.719 7.31 6.157 2.03 2.433 3.58 5.343 4.73 8.66 1.09 3.316 1.63 7.035 1.63 11.097 0 4.125-.54 8.254-1.63 12.379-1.08 4.196-2.7 8.188-4.94 11.911-2.23 3.789-4.93 7.308-8.25 10.488-3.32 3.246-7.17 6.09-11.57 8.457-4.47 2.367-9.41 4.262-14.89 5.547-5.48 1.355-11.84 2.031-19.08 2.031h-39.98c-2.51 0-4.4-.676-5.69-1.961-1.28-1.289-1.62-3.316-.95-6.227l26.8-134.441c.54-3.047 1.82-5.211 3.79-6.43 1.96-1.152 3.92-1.757 6.02-1.757h32.41c7.64 0 14.14.605 19.35 1.894 5.21 1.285 9.54 3.18 12.99 5.684 3.45 2.5 6.09 5.547 7.78 9.199 1.69 3.656 2.5 7.851 2.5 12.586zm-21.31 3.652c0-2.57-.41-4.871-1.29-6.898-.87-2.031-2.22-3.789-4.12-5.211-1.89-1.422-4.26-2.57-7.17-3.383-2.91-.813-6.77-1.219-11.51-1.219h-21.24l-9.68 48.852h22.74c6.15 0 11.16-1.016 15.15-3.043 4-2.031 7.24-4.602 9.75-7.781 2.5-3.114 4.39-6.567 5.61-10.422 1.15-3.789 1.76-7.442 1.76-10.895zm-4.53 68.406c0-6.425-2.3-11.433-6.84-15.019-4.6-3.52-11.7-5.277-21.24-5.277h-25.78l-10.49 53.113h28.08c6.43 0 11.77-.945 16.17-2.774 4.4-1.828 8.06-4.195 11.03-7.171 2.91-2.977 5.21-6.43 6.77-10.422 1.55-3.993 2.3-8.118 2.3-12.45zm163.69 42.289c.2 1.692.27 3.114.2 4.129-.13 1.016-.53 1.825-1.28 2.368-.74.543-1.9.879-3.45 1.082-1.56.136-3.66.203-6.29.203-1.69 0-3.18-.067-4.4-.137-1.29-.133-2.24-.336-2.91-.605-.68-.274-1.15-.68-1.42-1.153-.34-.472-.54-1.015-.61-1.691l-5.62-36.738h-62.79l-19.69 36.398c-.4.746-.88 1.422-1.35 1.894-.47.477-1.22.883-2.1 1.219-.87.34-2.09.543-3.52.676-1.42.07-3.18.137-5.27.137-2.37 0-4.2-.067-5.62-.27s-2.37-.543-2.91-1.082c-.54-.543-.68-1.355-.47-2.437.2-1.016.74-2.434 1.62-4.129l78.56-140.059a9.506 9.506 0 0 1 1.75-2.097c.61-.54 1.5-.946 2.51-1.286 1.01-.336 2.3-.539 3.86-.675 1.55-.067 3.45-.137 5.68-.137 2.51 0 4.6.07 6.22.137 1.56.136 2.85.339 3.86.675.95.34 1.62.746 2.03 1.286.34.609.61 1.285.81 2.168l22.6 140.124zm-39.31-123.683h-.07l-40.79 75.172h52.16l-11.3-75.172zm197.58-16.848c0 1.016-.41 2.098-1.22 3.246-.88 1.153-2.1 2.571-3.79 4.196l-62.58 61.031 39.51 70.301c.68 1.285 1.15 2.367 1.42 3.179.27.879.41 1.555.41 2.164 0 .747-.14 1.356-.48 1.895-.34.543-.81.949-1.55 1.285-.75.34-1.76.543-3.11.746-1.43.203-3.12.27-5.22.27-2.16 0-3.92-.067-5.27-.203-1.42-.203-2.51-.407-3.32-.676-.81-.27-1.42-.676-1.82-1.153-.48-.472-.82-1.082-1.16-1.824l-41.27-75.242-14.89 75.375c-.06.609-.33 1.152-.74 1.625-.47.473-1.08.879-1.96 1.152-.88.27-1.96.473-3.25.676-1.28.203-2.91.27-4.8.27-1.96 0-3.52-.067-4.81-.27-1.28-.203-2.23-.406-2.9-.676-.75-.273-1.22-.679-1.43-1.152-.27-.473-.34-1.016-.13-1.625l28.89-144.863c.07-.539.34-1.082.81-1.555.48-.473 1.09-.812 1.97-1.082.87-.269 1.96-.473 3.31-.676 1.29-.203 2.91-.273 4.74-.273 1.82 0 3.45.07 4.73.273 1.29.203 2.23.407 2.98.676.68.27 1.15.609 1.42 1.082.2.473.27 1.016.2 1.555l-13.39 67.121 65.97-66.848a8.257 8.257 0 0 1 2.03-1.828 8.828 8.828 0 0 1 2.57-1.148c.94-.274 2.1-.477 3.52-.68 1.42-.133 3.04-.203 4.93-.203 1.97 0 3.59.07 4.88.273 1.28.203 2.23.407 2.97.743.68.339 1.15.675 1.42 1.152.27.472.41 1.082.41 1.691zm120.37.676c0 .34 0 .945-.06 1.758-.07.879-.13 1.762-.34 2.64-.2.946-.4 1.895-.68 2.911-.27 1.011-.6 1.961-1.08 2.773a6.856 6.856 0 0 1-1.69 1.961c-.68.473-1.42.746-2.23.746h-58.8l-9.61 47.363h50.75c.88 0 1.62.27 2.1.879.47.61.67 1.555.67 2.84 0 .34-.06.949-.13 1.762-.14.879-.27 1.758-.41 2.703-.2 1.016-.41 1.965-.74 2.844-.34.945-.68 1.758-1.08 2.504-.48.742-.95 1.421-1.56 1.894-.61.473-1.36.742-2.17.742h-50.54l-10.96 53.996h60.01c.75 0 1.43.27 1.97.879.47.61.74 1.625.74 2.977 0 .473-.06 1.082-.14 1.961-.06.883-.2 1.762-.4 2.64-.2.946-.41 1.895-.68 2.84-.34 1.016-.67 1.899-1.15 2.707-.47.813-1.01 1.422-1.62 1.895-.68.476-1.42.746-2.23.746h-72.47c-.88 0-1.69-.137-2.5-.406-.82-.27-1.49-.746-2.1-1.422-.61-.61-1.02-1.488-1.22-2.57-.2-1.016-.13-2.301.2-3.79l26.93-134.441c.55-3.047 1.76-5.211 3.66-6.43 1.82-1.152 3.65-1.757 5.41-1.757h71.45c1.83 0 2.71 1.285 2.71 3.855h-.01zm128.91 27.742c0 5.344-.74 10.418-2.23 15.223-1.56 4.805-3.86 9.269-6.91 13.262-3.04 4.058-6.9 7.644-11.5 10.824-4.67 3.183-10.01 5.683-16.17 7.648 4.13 1.489 7.44 4.602 10.01 9.336 2.58 4.738 4.54 10.961 5.96 18.742l6.16 33.356c.2 1.492.47 2.844.67 4.129.21 1.285.27 2.437.27 3.449 0 .68-.2 1.289-.54 1.762-.4.539-1.01.945-1.89 1.218-.88.336-2.03.54-3.52.743-1.55.136-3.38.203-5.55.203-2.03 0-3.65-.067-4.87-.203-1.29-.203-2.23-.473-2.91-.879-.67-.34-1.15-.813-1.42-1.422-.27-.61-.47-1.352-.61-2.367l-5.95-35.453c-.61-4.129-1.49-7.852-2.64-11.165-1.15-3.316-2.71-6.226-4.67-8.73-2.03-2.434-4.6-4.328-7.78-5.684-3.18-1.351-6.97-2.031-11.5-2.031h-13.4l-12.92 64.348c-.14.543-.41 1.015-.81 1.488-.41.473-1.02.879-1.9 1.152-.88.27-1.96.473-3.25.676-1.29.203-2.91.27-4.87.27-1.83 0-3.32-.067-4.6-.203-1.29-.203-2.3-.407-2.98-.676-.74-.27-1.22-.61-1.49-1.082-.27-.473-.34-1.016-.13-1.625l27.94-139.719c.61-3.047 1.9-5.211 3.79-6.43 1.83-1.152 3.93-1.757 6.16-1.757h32.75c7.1 0 13.39.675 18.81 2.097 5.34 1.418 9.87 3.449 13.53 6.09 3.65 2.703 6.43 6.02 8.25 9.945 1.83 3.922 2.71 8.391 2.71 13.465zm-21.65 3.11c0-2.637-.48-5.075-1.36-7.305-.94-2.234-2.43-4.195-4.4-5.82-1.96-1.625-4.59-2.84-7.78-3.723-3.24-.879-7.1-1.285-11.5-1.285h-20.9l-10.22 50.816h17.73c6.9 0 12.78-.949 17.66-2.844 4.8-1.828 8.79-4.328 11.84-7.375 3.04-3.043 5.34-6.562 6.76-10.418a34.821 34.821 0 0 0 2.17-12.046zm101.02 57.515l-11.1 55.684c-.13.543-.41 1.015-.81 1.488-.47.473-1.08.879-1.96 1.152-.88.27-1.96.473-3.25.676-1.35.203-2.97.27-4.8.27-1.96 0-3.52-.067-4.74-.27-1.29-.203-2.23-.406-2.91-.676-.74-.273-1.22-.679-1.42-1.152-.27-.473-.34-.945-.27-1.488l11.17-55.684-25.58-85.121c-.48-1.691-.82-3.109-.88-4.125-.14-1.016.13-1.762.74-2.301.61-.543 1.69-.879 3.11-1.082 1.42-.203 3.46-.273 6.23-.273 2.1 0 3.79.07 5.14.137 1.29.136 2.37.406 3.11.746.75.402 1.36.879 1.69 1.488.35.609.68 1.352 1.02 2.367l11.98 41.41c1.42 4.801 2.63 9.473 3.72 13.938 1.08 4.465 2.16 9.133 3.18 13.937h.2c2.78-4.668 5.62-9.336 8.53-13.937 2.84-4.535 5.88-9.137 9.06-13.805l28.56-42.086c.47-.812.94-1.488 1.55-2.027a6.883 6.883 0 0 1 2.3-1.356c.95-.336 2.1-.539 3.52-.675 1.42-.067 3.25-.137 5.55-.137 2.77 0 4.94.137 6.43.406 1.49.274 2.43.68 2.9 1.285.41.61.41 1.422-.06 2.438-.47 1.015-1.22 2.234-2.24 3.652l-59.67 85.121z" fill="#ffffff"></path>
        <path d="M300.258 594.617c-.274-.469-.758-.855-1.457-1.164-.699-.312-1.672-.566-2.914-.758-1.242-.195-2.875-.293-4.895-.293-1.863 0-3.496.078-4.894.235-1.399.156-2.586.367-3.555.64-.973.274-1.828.661-2.566 1.164a11.237 11.237 0 0 0-2.039 1.809l-65.965 66.898 13.402-67.132c.074-.543 0-1.051-.234-1.516-.231-.465-.7-.832-1.399-1.105-.699-.274-1.687-.508-2.972-.7-1.282-.195-2.856-.293-4.719-.293-1.863 0-3.457.098-4.778.293-1.324.192-2.41.426-3.265.7-.856.273-1.516.64-1.981 1.105-.465.465-.738.973-.816 1.516l-28.902 144.871c-.161.625-.118 1.168.113 1.633.234.464.703.835 1.398 1.105.703.273 1.692.504 2.973.699 1.281.196 2.895.293 4.84.293 1.863 0 3.453-.097 4.777-.293 1.32-.195 2.406-.426 3.262-.699.855-.27 1.496-.641 1.926-1.105a2.9 2.9 0 0 0 .754-1.633l14.921-75.407 41.258 75.29c.309.699.68 1.304 1.106 1.808.425.504 1.051.895 1.867 1.164.816.274 1.902.485 3.262.641 1.359.156 3.129.234 5.304.234 2.098 0 3.825-.097 5.188-.293 1.355-.195 2.406-.445 3.144-.758.739-.308 1.262-.738 1.575-1.281.308-.543.464-1.164.464-1.863 0-.621-.136-1.34-.406-2.156-.273-.817-.758-1.883-1.457-3.207l-39.512-70.278 62.59-61.074c1.707-1.633 2.969-3.031 3.785-4.195.817-1.164 1.227-2.254 1.227-3.262 0-.621-.137-1.168-.41-1.633z" fill="none" stroke="#ffffff" stroke-width="6.38"></path>
        <path d="M358.816 596.016c.153-.543.114-1.051-.117-1.516-.234-.465-.719-.832-1.457-1.105-.738-.274-1.73-.508-2.972-.7-1.243-.195-2.797-.293-4.661-.293-1.867 0-3.441.098-4.722.293-1.282.192-2.352.426-3.203.7-.856.273-1.536.64-2.039 1.105-.508.465-.801.973-.875 1.516l-28.907 144.988c-.156.543-.117 1.051.117 1.516.235.464.7.835 1.399 1.105.699.273 1.672.504 2.914.699 1.242.196 2.875.293 4.895.293 1.867 0 3.457-.097 4.777-.293 1.324-.195 2.41-.426 3.265-.699.856-.27 1.497-.641 1.922-1.105.426-.465.68-.973.758-1.516l28.906-144.988z" fill="none" stroke="#ffffff" stroke-width="6.38"></path>
        <path d="M501.93 594.207c-.391-.734-1.09-1.105-2.098-1.105H394.938a3.02 3.02 0 0 0-2.04.757c-.586.508-1.109 1.164-1.574 1.981a14.564 14.564 0 0 0-1.168 2.621 23.812 23.812 0 0 0-.758 2.914 63.842 63.842 0 0 0-.464 2.742c-.118.813-.176 1.496-.176 2.039 0 1.242.195 2.215.586 2.914.386.7 1.125 1.047 2.211 1.047h42.191l-26.105 130.77c-.157.625-.118 1.164.117 1.633.234.464.699.835 1.398 1.105.699.273 1.668.504 2.914.699 1.242.196 2.836.293 4.778.293 1.941 0 3.574-.097 4.894-.293 1.32-.195 2.391-.426 3.207-.699.817-.27 1.438-.641 1.863-1.105a3.741 3.741 0 0 0 .876-1.633l26.222-130.77h42.426c.773 0 1.496-.25 2.156-.758a6.73 6.73 0 0 0 1.688-1.921c.468-.778.855-1.692 1.168-2.739.308-1.051.562-2.039.757-2.972.192-.934.309-1.805.348-2.622.039-.816.059-1.457.059-1.925 0-1.242-.196-2.231-.582-2.973z" fill="none" stroke="#ffffff" stroke-width="6.38"></path>
        <path d="M622.43 603.184c-1.55-1.516-4.07-3.243-7.57-5.188-3.501-1.941-7.715-3.555-12.649-4.836-4.934-1.281-10.238-1.922-15.91-1.922-9.012 0-17.289 1.418-24.824 4.254-7.536 2.836-14.317 6.719-20.336 11.653-6.024 4.937-11.305 10.664-15.852 17.191a108.516 108.516 0 0 0-11.363 20.863 123.234 123.234 0 0 0-6.879 22.785c-1.555 7.809-2.328 15.407-2.328 22.786 0 8.937 1.222 16.843 3.672 23.718 2.445 6.875 5.902 12.629 10.371 17.25 4.468 4.625 9.886 8.121 16.258 10.489 6.371 2.371 13.519 3.554 21.445 3.554 5.285 0 10.273-.484 14.976-1.457 4.7-.969 8.934-2.133 12.704-3.496 3.769-1.359 6.953-2.797 9.558-4.312 2.602-1.516 4.313-2.661 5.129-3.438.816-.777 1.398-1.535 1.746-2.273.352-.739.68-1.551.992-2.446.309-.894.563-1.847.758-2.855.192-1.012.367-1.942.524-2.797.156-.855.293-1.652.41-2.391.113-.738.172-1.3.172-1.691 0-1.242-.192-2.172-.582-2.797-.391-.621-1.012-.933-1.864-.933-1.324 0-3.031.683-5.129 2.043-2.097 1.359-4.718 2.874-7.867 4.542-3.148 1.672-6.918 3.188-11.304 4.547-4.391 1.36-9.618 2.039-15.676 2.039-5.442 0-10.297-.855-14.571-2.562-4.273-1.711-7.886-4.234-10.839-7.578-2.954-3.34-5.204-7.438-6.758-12.297-1.555-4.852-2.332-10.391-2.332-16.606 0-5.437.543-11.191 1.633-17.25a111.037 111.037 0 0 1 4.835-18.007 96.559 96.559 0 0 1 8.102-17.075c3.262-5.437 7.051-10.238 11.363-14.394 4.313-4.156 9.149-7.457 14.512-9.906 5.359-2.45 11.305-3.672 17.832-3.672 5.902 0 10.816.719 14.742 2.156 3.922 1.437 7.129 2.992 9.617 4.664 2.485 1.672 4.462 3.223 5.942 4.66 1.48 1.438 2.76 2.156 3.85 2.156 1.01 0 1.96-.699 2.85-2.097.89-1.399 1.61-3.301 2.16-5.711.54-2.406.82-4.43.82-6.059 0-2.023-.79-3.789-2.34-5.304z" fill="none" stroke="#ffffff" stroke-width="6.38"></path>
        <path d="M772.89 596.016c.16-.543.13-1.051-.06-1.516-.19-.465-.66-.832-1.4-1.105-.74-.274-1.73-.508-2.97-.7-1.24-.195-2.8-.293-4.66-.293-2.02 0-3.67.098-4.96.293-1.28.192-2.34.426-3.2.7-.85.273-1.5.64-1.92 1.105-.43.465-.68.973-.76 1.516l-12.12 60.488h-68.53l12-60.488a2.85 2.85 0 0 0-.17-1.516c-.2-.465-.64-.832-1.34-1.105-.7-.274-1.69-.508-2.98-.7-1.28-.195-2.85-.293-4.71-.293-1.95 0-3.56.098-4.84.293-1.29.192-2.35.426-3.21.7-.85.273-1.51.64-1.98 1.105-.47.465-.74.973-.81 1.516l-28.91 144.988c-.16.543-.11 1.051.12 1.516.23.464.7.835 1.4 1.105.69.273 1.67.504 2.91.699 1.24.196 2.87.293 4.89.293 1.87 0 3.46-.097 4.78-.293 1.33-.195 2.41-.426 3.27-.699.85-.27 1.47-.641 1.86-1.105.39-.465.66-.973.82-1.516l13.28-67.016h68.65l-13.28 67.016c-.24.543-.24 1.051 0 1.516.23.464.71.835 1.45 1.105.74.273 1.73.504 2.97.699 1.25.196 2.8.293 4.67.293 2.02 0 3.67-.097 4.95-.293 1.28-.195 2.33-.426 3.15-.699.81-.27 1.43-.641 1.86-1.105.43-.465.72-.973.87-1.516l28.91-144.988z" fill="none" stroke="#ffffff" stroke-width="6.38"></path>
        <path d="M902.14 593.102h-71.45c-1.79 0-3.61.601-5.48 1.808-1.86 1.203-3.07 3.32-3.61 6.352l-26.92 134.496c-.39 1.476-.47 2.742-.24 3.789.24 1.051.64 1.906 1.23 2.562a4.69 4.69 0 0 0 2.1 1.399c.81.273 1.64.41 2.5.41h72.5c.77 0 1.49-.234 2.15-.699.66-.465 1.22-1.11 1.69-1.926.47-.813.83-1.707 1.11-2.68.27-.968.5-1.922.7-2.855.19-.93.33-1.824.4-2.68.08-.855.12-1.516.12-1.98 0-1.321-.25-2.293-.76-2.914-.5-.622-1.14-.934-1.92-.934h-60.02l10.95-53.961h50.59c.77 0 1.47-.254 2.1-.758a6.502 6.502 0 0 0 1.56-1.867c.43-.734.8-1.57 1.12-2.504.3-.933.54-1.883.69-2.855.16-.973.29-1.864.41-2.68.12-.816.18-1.418.18-1.809 0-1.242-.24-2.175-.7-2.796-.47-.622-1.17-.934-2.1-.934h-50.7l9.56-47.316h58.85c.78 0 1.5-.254 2.16-.758.66-.504 1.23-1.168 1.69-1.985.47-.812.83-1.726 1.11-2.738.27-1.008.5-1.98.7-2.914.19-.93.31-1.805.35-2.621.04-.816.06-1.418.06-1.805 0-2.566-.9-3.847-2.68-3.847z" fill="none" stroke="#ffffff" stroke-width="6.38"></path>
        <path d="M1062.38 596.363c.08-.621 0-1.144-.23-1.57-.23-.426-.68-.797-1.34-1.109-.66-.309-1.6-.543-2.8-.7-1.2-.152-2.7-.23-4.49-.23-1.86 0-3.39.078-4.6.23-1.21.157-2.2.391-2.97.7-.78.312-1.36.683-1.75 1.109-.39.426-.66.949-.82 1.57l-16.43 81.703a2831.51 2831.51 0 0 0-3.79 19.813c-1.28 6.84-2.47 13.445-3.55 19.816h-.23c-1.72-5.129-3.44-10.218-5.19-15.269a3033.47 3033.47 0 0 0-5.3-15.153l-28.56-81.468c-.93-2.485-1.79-4.524-2.56-6.117-.78-1.594-1.68-2.895-2.68-3.907a8.18 8.18 0 0 0-3.62-2.097c-1.4-.387-3.03-.582-4.89-.582h-9.21c-2.02 0-4.02.66-6 1.98-1.98 1.324-3.28 3.539-3.91 6.645l-27.73 139.16c-.16.625-.14 1.164.05 1.633.2.464.6.835 1.23 1.105.62.273 1.53.504 2.74.699 1.2.196 2.69.293 4.48.293 1.79 0 3.33-.097 4.61-.293 1.28-.195 2.33-.426 3.14-.699.82-.27 1.44-.641 1.87-1.105a3.72 3.72 0 0 0 .87-1.633l17.49-87.879c1.24-6.293 2.44-12.586 3.61-18.879a772.544 772.544 0 0 0 3.26-19h.24c1.78 5.754 3.62 11.48 5.53 17.191 1.9 5.711 3.83 11.442 5.77 17.192l28.32 80.422c.94 2.718 1.81 4.992 2.62 6.816.82 1.828 1.75 3.305 2.8 4.43 1.05 1.125 2.27 1.922 3.67 2.386 1.4.469 3.11.7 5.13.7h7.58c1.01 0 2.02-.157 3.03-.465 1-.309 1.96-.817 2.85-1.516.9-.699 1.69-1.59 2.39-2.68.7-1.085 1.17-2.406 1.4-3.96l27.97-139.282z" fill="none" stroke="#ffffff" stroke-width="6.38"></path>
        <path d="M1251.88 736.574c2.87 2.254 5.45 4.063 7.75 5.422 2.28 1.359 4.35 2.348 6.17 2.969 1.83.621 3.48.933 4.95.933 1.48 0 2.88-.175 4.2-.523 1.32-.352 2.25-.797 2.8-1.34.54-.543 1.01-1.34 1.4-2.39.39-1.051.74-2.176 1.04-3.379.31-1.204.55-2.352.7-3.438.16-1.09.24-1.906.24-2.449.07-1.164-.16-1.981-.7-2.449-.54-.465-1.63-.7-3.27-.7-2.4 0-5.22-1.066-8.44-3.203-3.23-2.136-7.33-5.574-12.3-10.316a89.588 89.588 0 0 0 9.09-11.188 98.753 98.753 0 0 0 7.11-12.062c2.02-4.078 3.65-8.043 4.9-11.887 1.24-3.847 2.21-7.422 2.91-10.722.7-3.305 1.05-5.461 1.05-6.469 0-1.012-.62-1.731-1.87-2.156-1.24-.43-3.57-.641-6.99-.641-1.94 0-3.51.078-4.72.23-1.21.157-2.2.411-2.97.758-.78.352-1.34.817-1.69 1.399-.35.582-.63 1.574-.82 2.972-.19 1.399-.83 4.196-1.92 8.391-1.09 4.195-3.05 8.957-5.89 14.277-2.83 5.325-6.39 10.434-10.66 15.328a331.948 331.948 0 0 1-8.33-9.558 345.298 345.298 0 0 1-7.64-9.438 196.491 196.491 0 0 1-7.28-9.968c-2.37-3.454-4.8-7.243-7.29-11.364 9.79-4.582 17.91-9.011 24.36-13.285 6.45-4.273 11.58-8.469 15.39-12.59 3.8-4.117 6.48-8.273 8.04-12.468 1.55-4.196 2.33-8.586 2.33-13.172 0-3.106-.64-6.215-1.92-9.321-1.29-3.109-3.42-5.906-6.42-8.394-2.99-2.485-6.93-4.485-11.82-6-4.9-1.516-11-2.274-18.3-2.274-6.3 0-11.87.602-16.73 1.805-4.86 1.207-9.07 2.84-12.64 4.895-3.58 2.062-6.57 4.41-8.98 7.05-2.41 2.645-4.35 5.422-5.83 8.336-1.47 2.914-2.54 5.848-3.2 8.801-.66 2.953-.99 5.711-.99 8.274 0 1.632.16 3.554.46 5.769.32 2.215.84 4.719 1.58 7.516.74 2.797 1.81 5.886 3.2 9.265 1.4 3.383 3.19 7.051 5.37 11.016-7.39 3.73-13.7 7.676-18.94 11.828-5.25 4.16-9.54 8.453-12.88 12.879-3.35 4.43-5.79 8.996-7.35 13.695-1.55 4.703-2.33 9.461-2.33 14.278 0 5.207 1.03 9.949 3.09 14.218 2.06 4.278 5.01 7.926 8.86 10.957 3.85 3.032 8.53 5.344 14.05 6.934 5.51 1.594 11.73 2.391 18.64 2.391 9.56 0 18.69-1.594 27.39-4.778 8.7-3.187 16.82-7.5 24.36-12.937 3.57 3.261 6.8 6.019 9.68 8.273zm-50.94-94.578c-1.01-2.527-1.8-4.855-2.39-6.996-.58-2.137-.99-4.059-1.22-5.77-.24-1.707-.35-3.3-.35-4.777 0-2.176.43-4.562 1.28-7.168.86-2.601 2.31-5.051 4.37-7.344 2.06-2.289 4.8-4.195 8.22-5.711 3.42-1.515 7.81-2.269 13.17-2.269 3.8 0 6.89.426 9.27 1.281 2.36.856 4.25 1.942 5.65 3.262 1.4 1.324 2.37 2.738 2.91 4.254.54 1.515.82 2.898.82 4.137 0 2.644-.49 5.289-1.46 7.925-.97 2.645-2.82 5.403-5.54 8.278-2.72 2.875-6.52 5.906-11.42 9.09-4.89 3.187-11.31 6.644-19.23 10.371-1.71-3.184-3.07-6.039-4.08-8.563zm2.56 42.598c2.65 3.808 5.35 7.5 8.11 11.07a305.22 305.22 0 0 0 8.5 10.551 368.88 368.88 0 0 0 9.27 10.547 66.684 66.684 0 0 1-7.81 5.187 57.492 57.492 0 0 1-8.85 4.078 67.576 67.576 0 0 1-9.5 2.68c-3.23.66-6.4.992-9.5.992-5.13 0-9.41-.582-12.83-1.75-3.41-1.164-6.17-2.719-8.27-4.66-2.1-1.941-3.57-4.156-4.43-6.644a23.273 23.273 0 0 1-1.28-7.575c0-3.886.64-7.519 1.92-10.898 1.28-3.379 3.13-6.567 5.54-9.559 2.41-2.988 5.4-5.804 8.97-8.449 3.57-2.641 7.66-5.168 12.24-7.574 2.64 4.195 5.28 8.199 7.92 12.004z" fill="none" stroke="#ffffff" stroke-width="6.38"></path>
        <path d="M1492.65 609.883c-1.71-3.649-4.29-6.719-7.75-9.207-3.46-2.485-7.79-4.367-13-5.653-5.21-1.281-11.65-1.921-19.34-1.921h-32.41c-2.09 0-4.11.601-6.06 1.804-1.94 1.207-3.18 3.324-3.73 6.352l-26.8 134.5c-.7 2.879-.41 4.953.87 6.234 1.29 1.285 3.21 1.926 5.77 1.926h39.98c7.22 0 13.57-.66 19.05-1.98 5.48-1.321 10.43-3.188 14.86-5.598 4.43-2.406 8.3-5.223 11.6-8.449 3.3-3.223 6.06-6.719 8.28-10.489a46.944 46.944 0 0 0 4.95-11.886c1.09-4.157 1.63-8.297 1.63-12.414 0-4.04-.57-7.731-1.69-11.071-1.13-3.34-2.7-6.238-4.72-8.683-2.02-2.45-4.45-4.489-7.28-6.121a29.27 29.27 0 0 0-9.15-3.379c4.27-1.786 8.1-4.039 11.48-6.758a41.513 41.513 0 0 0 8.62-9.442c2.37-3.574 4.2-7.48 5.48-11.714 1.28-4.235 1.92-8.723 1.92-13.461 0-4.739-.85-8.934-2.56-12.59zm-20.57 27.156a31.962 31.962 0 0 1-5.6 10.434c-2.52 3.148-5.76 5.73-9.73 7.75-3.96 2.019-9.02 3.031-15.15 3.031h-22.73l9.68-48.836h21.21c4.74 0 8.56.41 11.48 1.223 2.91.816 5.32 1.945 7.23 3.382 1.9 1.438 3.28 3.165 4.13 5.184.85 2.023 1.28 4.313 1.28 6.879 0 3.496-.6 7.148-1.8 10.953zm-5.07 69.934c-1.56 3.961-3.81 7.441-6.76 10.429-2.96 2.993-6.63 5.403-11.02 7.227-4.39 1.824-9.77 2.738-16.14 2.738H1405l10.49-53.148h25.76c9.56 0 16.63 1.769 21.21 5.304 4.58 3.536 6.88 8.528 6.88 14.977 0 4.352-.78 8.508-2.33 12.473z" fill="none" stroke="#ffffff" stroke-width="6.38"></path>
        <path d="M1610.47 596.715c-.15-.856-.43-1.574-.81-2.156-.39-.582-1.07-1.028-2.04-1.34-.98-.309-2.26-.524-3.85-.641-1.59-.117-3.67-.176-6.23-.176-2.26 0-4.16.059-5.72.176-1.55.117-2.83.332-3.84.641-1.01.312-1.83.738-2.45 1.281-.62.543-1.21 1.242-1.75 2.098l-78.55 140.093c-.86 1.711-1.4 3.09-1.64 4.137-.23 1.051-.07 1.848.47 2.391.55.543 1.52.914 2.91 1.105 1.41.196 3.27.293 5.6.293 2.1 0 3.86-.058 5.3-.176 1.44-.117 2.6-.332 3.5-.64.89-.309 1.59-.719 2.1-1.223.5-.504.95-1.148 1.34-1.926l19.69-36.363h62.82l5.6 36.715c.08.699.27 1.281.58 1.746.31.469.8.84 1.46 1.109.66.274 1.61.465 2.85.582 1.25.118 2.72.176 4.43.176 2.64 0 4.74-.078 6.3-.234 1.55-.156 2.69-.504 3.44-1.047.73-.543 1.16-1.34 1.28-2.391.11-1.05.06-2.425-.18-4.136l-22.61-140.094zm-5.36 91.609h-52.22l40.8-75.176h.12l11.3 75.176z" fill="none" stroke="#ffffff" stroke-width="6.38"></path>
        <path d="M1790.94 594.617c-.27-.469-.76-.855-1.46-1.164-.7-.312-1.67-.566-2.91-.758-1.25-.195-2.88-.293-4.9-.293-1.86 0-3.49.078-4.89.235-1.4.156-2.58.367-3.56.64-.97.274-1.82.661-2.56 1.164-.74.508-1.42 1.11-2.04 1.809l-65.97 66.898 13.4-67.132c.08-.543 0-1.051-.23-1.516-.23-.465-.69-.832-1.4-1.105-.69-.274-1.69-.508-2.97-.7-1.28-.195-2.85-.293-4.72-.293-1.86 0-3.46.098-4.78.293-1.32.192-2.41.426-3.26.7-.86.273-1.51.64-1.98 1.105-.47.465-.74.973-.82 1.516l-28.9 144.871c-.16.625-.12 1.168.12 1.633.23.464.69.835 1.39 1.105.7.273 1.69.504 2.98.699 1.28.196 2.89.293 4.83.293 1.87 0 3.46-.097 4.78-.293 1.32-.195 2.41-.426 3.27-.699.85-.27 1.49-.641 1.92-1.105a2.87 2.87 0 0 0 .75-1.633l14.92-75.407 41.26 75.29c.31.699.68 1.304 1.11 1.808.43.504 1.05.895 1.86 1.164.82.274 1.91.485 3.27.641 1.35.156 3.12.234 5.3.234 2.1 0 3.83-.097 5.19-.293 1.36-.195 2.4-.445 3.14-.758.74-.308 1.27-.738 1.58-1.281.31-.543.47-1.164.47-1.863 0-.621-.14-1.34-.41-2.156-.28-.817-.76-1.883-1.46-3.207l-39.51-70.278 62.59-61.074c1.7-1.633 2.97-3.031 3.79-4.195.81-1.164 1.22-2.254 1.22-3.262 0-.621-.14-1.168-.41-1.633z" fill="none" stroke="#ffffff" stroke-width="6.38"></path>
        <path d="M1909.05 593.102h-71.44c-1.79 0-3.61.601-5.48 1.808-1.86 1.203-3.07 3.32-3.61 6.352l-26.93 134.496c-.39 1.476-.46 2.742-.23 3.789.23 1.051.64 1.906 1.23 2.562a4.715 4.715 0 0 0 2.09 1.399c.82.273 1.65.41 2.51.41h72.49c.78 0 1.5-.234 2.16-.699.66-.465 1.22-1.11 1.69-1.926.47-.813.83-1.707 1.11-2.68.27-.968.5-1.922.7-2.855.19-.93.32-1.824.4-2.68.08-.855.12-1.516.12-1.98 0-1.321-.25-2.293-.76-2.914-.5-.622-1.15-.934-1.92-.934h-60.02l10.95-53.961h50.59c.77 0 1.47-.254 2.09-.758a6.728 6.728 0 0 0 1.58-1.867c.42-.734.79-1.57 1.1-2.504.31-.933.55-1.883.7-2.855.16-.973.3-1.864.41-2.68.12-.816.17-1.418.17-1.809 0-1.242-.23-2.175-.7-2.796-.46-.622-1.16-.934-2.09-.934h-50.7l9.56-47.316h58.85c.78 0 1.5-.254 2.16-.758.66-.504 1.22-1.168 1.69-1.985.46-.812.83-1.726 1.11-2.738.27-1.008.5-1.98.69-2.914.2-.93.32-1.805.36-2.621.04-.816.05-1.418.05-1.805 0-2.566-.89-3.847-2.68-3.847z" fill="none" stroke="#ffffff" stroke-width="6.38"></path>
        <path d="M2037.89 611.227c-1.83-3.926-4.57-7.227-8.21-9.907-3.66-2.683-8.18-4.722-13.59-6.121-5.39-1.398-11.67-2.097-18.82-2.097h-32.75c-2.25 0-4.31.601-6.18 1.804-1.86 1.207-3.1 3.324-3.72 6.352l-27.98 139.746c-.15.621-.09 1.164.18 1.633.27.465.75.836 1.46 1.105.69.274 1.69.485 2.97.641 1.28.156 2.81.234 4.6.234 1.94 0 3.57-.097 4.9-.293 1.32-.191 2.4-.426 3.26-.699.85-.27 1.47-.641 1.87-1.105.38-.465.65-.973.81-1.516l12.94-64.336h13.4c4.5 0 8.33.68 11.48 2.039 3.15 1.359 5.73 3.266 7.75 5.711 2.02 2.449 3.6 5.344 4.72 8.684 1.13 3.343 2 7.07 2.62 11.187l5.95 35.434c.15 1.011.36 1.804.64 2.386.27.586.74 1.071 1.4 1.457.66.391 1.61.661 2.85.817 1.24.156 2.88.234 4.9.234 2.17 0 4.02-.078 5.54-.234 1.51-.156 2.69-.391 3.55-.699.85-.309 1.48-.715 1.86-1.223.39-.504.59-1.109.59-1.809 0-1.007-.1-2.156-.29-3.437-.2-1.281-.41-2.66-.64-4.137l-6.18-33.332c-1.4-7.769-3.38-14.023-5.95-18.766-2.56-4.738-5.9-7.847-10.02-9.324 6.14-1.941 11.52-4.488 16.14-7.633 4.62-3.148 8.47-6.742 11.54-10.781a43.334 43.334 0 0 0 6.88-13.289c1.51-4.816 2.27-9.906 2.27-15.265 0-5.051-.91-9.54-2.74-13.461zm-21.09 28.613c-1.44 3.887-3.7 7.359-6.77 10.43-3.06 3.07-7.03 5.535-11.88 7.402-4.86 1.863-10.74 2.797-17.66 2.797h-17.72l10.26-50.817h20.86c4.43 0 8.26.426 11.49 1.282 3.22.855 5.82 2.097 7.8 3.73 1.98 1.633 3.44 3.574 4.37 5.828.93 2.254 1.4 4.699 1.4 7.34 0 4.121-.72 8.121-2.15 12.008z" fill="none" stroke="#ffffff" stroke-width="6.38"></path>
        <path d="M2179.78 600.211c1.01-1.399 1.75-2.602 2.22-3.613.46-1.008.48-1.825.05-2.446-.42-.621-1.38-1.07-2.85-1.343-1.48-.27-3.61-.407-6.41-.407-2.33 0-4.2.059-5.59.176-1.4.117-2.57.348-3.5.699-.93.348-1.69.797-2.27 1.34-.59.543-1.11 1.207-1.58 1.981l-28.55 42.074a423.895 423.895 0 0 0-9.1 13.871c-2.87 4.586-5.7 9.207-8.5 13.867h-.23a502.938 502.938 0 0 0-3.15-13.926 348.625 348.625 0 0 0-3.73-13.929l-12.01-41.375c-.31-1.008-.64-1.805-.99-2.387-.35-.586-.91-1.07-1.69-1.457-.77-.391-1.82-.641-3.15-.758-1.32-.117-3.02-.176-5.12-.176-2.72 0-4.8.098-6.24.293-1.44.192-2.46.563-3.09 1.106-.62.543-.87 1.324-.75 2.332.11 1.012.4 2.371.87 4.078l25.64 85.082-11.19 55.711c-.08.543 0 1.051.24 1.516.23.464.69.835 1.39 1.105.7.273 1.67.508 2.92.699 1.24.196 2.83.293 4.78.293 1.86 0 3.45-.097 4.78-.293 1.32-.191 2.4-.426 3.26-.699.85-.27 1.49-.641 1.92-1.105.43-.465.72-.973.87-1.516l11.08-55.711 59.67-85.082z" fill="none" stroke="#ffffff" stroke-width="6.38"></path>
    </g>
</svg>